HIERARCHY
ROOT Model_Hips
{
	OFFSET 0.000000 96.915077 0.000000
	CHANNELS 6 Xposition Yposition Zposition Xrotation Yrotation Zrotation
	JOINT Model_Spine
	{
		OFFSET 0.000000 11.137703 -1.289900
		CHANNELS 3 Xrotation Yrotation Zrotation
		JOINT Model_Spine1
		{
			OFFSET 0.000000 12.993942 -1.504922
			CHANNELS 3 Xrotation Yrotation Zrotation
			JOINT Model_Spine2
			{
				OFFSET 0.000000 14.850220 -1.719911
				CHANNELS 3 Xrotation Yrotation Zrotation
				JOINT Model_Neck
				{
					OFFSET 0.000000 16.706543 -1.934903
					CHANNELS 3 Xrotation Yrotation Zrotation
					JOINT Model_Head
					{
						OFFSET 0.000000 10.471298 2.002100
						CHANNELS 3 Xrotation Yrotation Zrotation
						JOINT Model_HeadTop_End
						{
							OFFSET 0.000000 20.842606 3.985100
							CHANNELS 3 Xrotation Yrotation Zrotation
							End Site
							{
								OFFSET 0.000000 21.220154 0.000000
							}
						}
					}
				}
				JOINT Model_LeftShoulder
				{
					OFFSET 7.008500 14.768600 -1.919946
					CHANNELS 3 Xrotation Yrotation Zrotation
					JOINT Model_LeftArm
					{
						OFFSET 14.126271 -3.718048 0.029937
						CHANNELS 3 Xrotation Yrotation Zrotation
						JOINT Model_LeftForeArm
						{
							OFFSET 28.282801 0.000000 0.000000
							CHANNELS 3 Xrotation Yrotation Zrotation
							JOINT Model_LeftHand
							{
								OFFSET 26.204689 0.000000 0.000000
								CHANNELS 3 Xrotation Yrotation Zrotation
								End Site
								{
									OFFSET 26.204704 0.000000 0.000000
								}
							}
						}
					}
				}
				JOINT Model_RightShoulder
				{
					OFFSET -7.008500 14.768555 -1.949840
					CHANNELS 3 Xrotation Yrotation Zrotation
					JOINT Model_RightArm
					{
						OFFSET -14.126281 -3.718018 -0.029932
						CHANNELS 3 Xrotation Yrotation Zrotation
						JOINT Model_RightForeArm
						{
							OFFSET -28.283798 0.000000 -0.000001
							CHANNELS 3 Xrotation Yrotation Zrotation
							JOINT Model_RightHand
							{
								OFFSET -26.204193 0.000000 -0.000001
								CHANNELS 3 Xrotation Yrotation Zrotation
								End Site
								{
									OFFSET -26.204208 0.000000 -0.000001
								}
							}
						}
					}
				}
			}
		}
	}
	JOINT Model_LeftUpLeg
	{
		OFFSET 8.327700 -6.193199 -0.402800
		CHANNELS 3 Xrotation Yrotation Zrotation
		JOINT Model_LeftLeg
		{
			OFFSET 0.735802 -42.108742 -0.610721
			CHANNELS 3 Xrotation Yrotation Zrotation
			JOINT Model_LeftFoot
			{
				OFFSET -0.735806 -36.833748 -0.172876
				CHANNELS 3 Xrotation Yrotation Zrotation
				JOINT Model_LeftToeBase
				{
					OFFSET -0.565857 -11.977769 16.297714
					CHANNELS 3 Xrotation Yrotation Zrotation
					JOINT Model_LeftToe_End
					{
						OFFSET -0.111712 -0.312793 7.857784
						CHANNELS 3 Xrotation Yrotation Zrotation
						End Site
						{
							OFFSET -0.111712 -0.312793 7.857784
						}
					}
				}
			}
		}
	}
	JOINT Model_RightUpLeg
	{
		OFFSET -8.327700 -6.193199 -0.516500
		CHANNELS 3 Xrotation Yrotation Zrotation
		JOINT Model_RightLeg
		{
			OFFSET -0.735785 -42.108738 -0.434061
			CHANNELS 3 Xrotation Yrotation Zrotation
			JOINT Model_RightFoot
			{
				OFFSET 0.735776 -36.833748 -0.021630
				CHANNELS 3 Xrotation Yrotation Zrotation
				JOINT Model_RightToeBase
				{
					OFFSET 0.565817 -11.977745 15.903093
					CHANNELS 3 Xrotation Yrotation Zrotation
					JOINT Model_RightToe_End
					{
						OFFSET 0.111702 -0.312791 7.811342
						CHANNELS 3 Xrotation Yrotation Zrotation
						End Site
						{
							OFFSET 0.111702 -0.312791 7.811342
						}
					}
				}
			}
		}
	}
}
MOTION
Frames: 9
Frame Time: 0.016667
-9.939268 94.642654 -41.780102 -4.530395 19.217514 1.555626 15.205704 -2.749616 -0.231084 14.443210 -0.653308 0.716301 14.439131 -0.671153 0.755794 4.245102 -3.497727 2.625051 4.376945 -3.494125 2.440442 -0.000002 0.000000 -0.000001 -0.622360 -15.476898 -21.113763 -27.571563 -17.441670 -54.140396 -0.000005 -5.760944 -0.000010 -0.000001 -0.000000 -0.000000 0.127320 7.305009 23.139557 -30.896637 27.323924 55.516003 0.000010 11.323174 0.000013 0.000001 0.000001 0.000001 -17.183327 5.820678 -1.943188 33.142588 0.253644 1.203837 -18.014786 0.840996 2.744285 0.276830 0.000002 0.000001 0.000000 0.000002 0.000000 -27.581496 -2.643238 -2.543147 59.360348 4.555597 -0.795794 -6.866061 -1.312708 9.490391 -3.783764 0.609427 -6.120455 -0.000001 -0.000000 0.000000 
-10.444690 94.756073 -42.652260 -4.354610 19.217842 1.459279 15.153985 -2.463680 -0.255545 14.418598 -0.573818 0.713775 14.414571 -0.593344 0.750927 4.201120 -3.518816 2.631310 4.333567 -3.514915 2.447976 0.000001 0.000000 0.000000 -0.577999 -15.272515 -20.893479 -25.795630 -16.228897 -53.163549 0.000003 -5.819104 0.000015 0.000000 -0.000000 -0.000001 0.115749 7.400976 23.144357 -31.447690 28.046171 56.167511 0.000024 11.975658 -0.000014 0.000003 -0.000000 0.000000 -17.754725 5.872085 -1.773039 32.615338 -0.027834 1.207597 -17.818756 0.928780 2.748308 0.292820 0.000004 0.000000 0.000001 0.000000 0.000000 -26.103334 -2.563614 -2.405646 60.032179 6.245187 -0.983972 -7.326182 -1.376994 9.547878 -5.366259 0.940421 -7.591508 -0.000001 -0.000003 0.000000 
-10.973871 94.821701 -43.510757 -4.229902 19.132123 1.439660 15.129600 -2.149432 -0.389071 14.402646 -0.486011 0.691765 14.398911 -0.507631 0.726396 4.159652 -3.541235 2.653738 4.293218 -3.536754 2.471668 -0.000003 -0.000000 -0.000000 -0.537554 -15.069552 -20.700720 -24.038047 -15.025882 -52.113531 -0.000002 -5.993632 -0.000002 -0.000000 0.000000 -0.000000 0.103400 7.495916 23.170201 -31.989618 28.908516 56.825630 0.000008 12.574405 -0.000000 0.000000 0.000001 -0.000000 -18.301728 5.958955 -1.603026 32.131580 -0.267136 1.156474 -17.496768 1.014393 2.741254 0.281554 0.000012 0.000001 0.000001 0.000001 0.000000 -24.442952 -2.486203 -2.274635 60.361735 8.066027 -1.200552 -7.846908 -1.447440 9.591384 -6.827699 1.388748 -9.211354 -0.000002 -0.000000 0.000001 
-11.526855 94.835396 -44.359478 -4.123680 19.037781 1.478375 15.106428 -1.863891 -0.593386 14.389730 -0.405840 0.656068 14.386422 -0.429506 0.688340 4.122975 -3.563804 2.686031 4.257843 -3.558644 2.505069 -0.000001 0.000000 -0.000000 -0.499841 -14.871021 -20.522967 -22.265057 -13.832812 -51.021182 0.000005 -6.305853 -0.000014 -0.000000 -0.000000 -0.000001 0.090879 7.587297 23.208626 -32.555485 29.840301 57.503479 0.000006 13.117224 0.000004 -0.000001 0.000001 0.000000 -18.871685 6.013687 -1.477599 31.672841 -0.423144 1.116189 -16.954968 1.104082 2.683050 0.259233 -0.000001 -0.000002 0.000000 0.000000 -0.000000 -22.652742 -2.443021 -2.178613 60.332427 9.900214 -1.435744 -8.462072 -1.536300 9.686967 -8.151419 1.964265 -10.937400 0.000000 -0.000001 0.000001 
-12.097497 94.793724 -45.206646 -4.001527 18.999771 1.543070 15.062741 -1.644026 -0.809657 14.375530 -0.343946 0.617148 14.372634 -0.369268 0.647500 4.087031 -3.581050 2.704419 4.223062 -3.575419 2.524251 -0.000004 -0.000000 0.000000 -0.469276 -14.692133 -20.390340 -20.427188 -12.748466 -49.908845 -0.000003 -6.808127 0.000027 -0.000000 -0.000000 0.000001 0.077595 7.688289 23.237598 -33.168102 30.760539 58.202678 0.000003 13.611046 -0.000002 0.000003 -0.000000 0.000001 -19.519468 5.976903 -1.428707 31.247333 -0.487766 1.142563 -16.164539 1.200674 2.551919 0.284254 -0.000027 -0.000004 0.000000 0.000000 -0.000000 -20.767491 -2.445566 -2.095524 59.904782 10.313410 -1.700872 -9.045926 -0.464026 10.078931 -9.580750 2.717018 -12.844427 -0.000002 0.000000 0.000000 
-12.679070 94.686981 -46.062260 -3.863732 19.029050 1.618386 15.011748 -1.463314 -1.004234 14.360425 -0.293231 0.580046 14.357870 -0.319859 0.608753 4.045557 -3.592286 2.693872 4.182437 -3.586541 2.514375 -0.000001 0.000000 0.000000 -0.451994 -14.569212 -20.333208 -18.497389 -11.883280 -48.795981 0.000003 -7.523682 -0.000013 -0.000001 0.000000 -0.000000 0.064137 7.799060 23.244177 -33.826577 31.605860 58.896550 0.000002 14.054812 0.000010 0.000003 -0.000002 0.000001 -20.288194 5.846704 -1.450437 30.950299 -0.477784 1.242235 -15.240355 1.301036 2.357973 0.359606 -0.000003 -0.000000 0.000001 0.000002 0.000000 -18.768901 -2.505866 -1.941133 59.112617 10.292161 -2.017579 -9.666359 0.552379 9.991334 -11.195688 3.503011 -14.410878 -0.000001 0.000001 -0.000000 
-13.269173 94.523155 -46.931252 -3.744094 19.105029 1.701376 14.992656 -1.263297 -1.172165 14.348957 -0.238478 0.540246 14.346759 -0.266209 0.567122 3.997350 -3.603322 2.664629 4.134776 -3.597713 2.486060 -0.000002 0.000000 0.000000 -0.448496 -14.538087 -20.328181 -16.520107 -11.237883 -47.714042 -0.000018 -8.377553 -0.000010 -0.000000 0.000000 0.000001 0.052617 7.899194 23.236613 -34.512208 32.344436 59.556456 0.000017 14.460112 -0.000005 0.000001 -0.000001 0.000001 -21.146404 5.671548 -1.496101 30.817417 -0.439500 1.374372 -14.314683 1.399484 2.136841 0.419605 -0.000002 0.000000 0.000000 0.000001 -0.000000 -16.480693 -2.728709 -1.476491 58.233360 10.168197 -2.399523 -11.617645 1.074036 7.377683 -12.346284 3.222497 -12.574624 0.000001 0.000001 -0.000000 
-13.871511 94.327911 -47.809982 -3.675963 19.215183 1.801436 15.029181 -1.026207 -1.330580 14.346232 -0.175491 0.490258 14.344420 -0.204110 0.514922 3.949249 -3.618842 2.641135 4.086886 -3.613354 2.463847 -0.000001 0.000000 0.000000 -0.450900 -14.589749 -20.307961 -14.610022 -10.705916 -46.704608 -0.000010 -9.186878 -0.000003 -0.000000 0.000001 0.000001 0.043150 7.981239 23.230274 -35.205066 32.983762 60.183877 0.000014 14.857873 -0.000016 0.000003 -0.000001 -0.000001 -22.001641 5.503614 -1.525986 30.753367 -0.429023 1.491477 -13.405285 1.492103 1.922073 0.402919 0.000001 -0.000001 0.000000 -0.000001 -0.000000 -13.947607 -2.999517 -0.946210 56.774995 9.986949 -2.815869 -13.540500 1.284037 4.254521 -14.147811 2.634487 -9.767456 -0.000001 0.000002 0.000000 
-14.491151 94.129272 -48.690571 -3.660513 19.360460 1.933434 15.102855 -0.784940 -1.499011 14.354160 -0.112977 0.428029 14.352712 -0.142188 0.450285 3.911824 -3.637782 2.637386 4.049386 -3.632328 2.461380 0.000001 -0.000000 0.000000 -0.448827 -14.666498 -20.223888 -12.903161 -10.189460 -45.803891 0.000003 -9.720680 0.000005 -0.000000 0.000001 -0.000001 0.033075 8.066364 23.229361 -35.891340 33.552860 60.795008 0.000010 15.261677 -0.000020 -0.000005 -0.000000 -0.000000 -22.762579 5.367699 -1.536327 30.579703 -0.476907 1.566183 -12.403980 1.576544 1.727611 0.305007 0.000000 0.000002 0.000001 0.000000 0.000000 -11.231000 -3.316523 -0.461683 54.661673 9.753723 -3.224387 -15.613560 1.428612 1.356118 -15.351586 1.760662 -6.996862 0.000001 0.000001 0.000000 
